<svg xmlns="http://www.w3.org/2000/svg" viewBox="0 0 364.42 514.99"><defs><style>.cls-1{fill:none;stroke:#002400;stroke-linecap:round;stroke-miterlimit:10;stroke-width:17px;}</style></defs><g id="Layer_2" data-name="Layer 2"><g id="Layer_1-2" data-name="Layer 1"><path class="cls-1" d="M8.5,147.34C35.66,3.1,232.59-17,284.2,116.1"/><path class="cls-1" d="M8.5,173.14c0,8,4,21.75,7.55,32.47A200.76,200.76,0,0,0,26.48,231l48.7,98.91a134.57,134.57,0,0,1,10.73,52.66V438c8.27,88.79,182.18,93.87,186.07,0V416.25L85.91,417.61"/><path class="cls-1" d="M130.84,375.8q4-42.49-20.85-85"/><path class="cls-1" d="M93.14,253.9c-39.88-63.35-49.51-119.26-5.61-162"/><path class="cls-1" d="M320.1,105.54Q294,51.81,243.91,17.32"/><path class="cls-1" d="M355.92,91.91Q331.47,34.16,290.43,8.5"/></g></g></svg>